<svg viewBox="0 0 330 200" xmlns="http://www.w3.org/2000/svg"><g><g><g><g><g><line x1="53.1875" y1="176" x2="48.1875" y2="176" style="visibility: inherit;" fill="rgb(0, 0, 0)" stroke="rgb(204, 204, 204)" stroke-width="1px"></line><line x1="53.1875" y1="154" x2="48.1875" y2="154" style="visibility: inherit;" fill="rgb(0, 0, 0)" stroke="rgb(204, 204, 204)" stroke-width="1px"></line><line x1="53.1875" y1="132" x2="48.1875" y2="132" style="visibility: inherit;" fill="rgb(0, 0, 0)" stroke="rgb(204, 204, 204)" stroke-width="1px"></line><line x1="53.1875" y1="110" x2="48.1875" y2="110" style="visibility: inherit;" fill="rgb(0, 0, 0)" stroke="rgb(204, 204, 204)" stroke-width="1px"></line><line x1="53.1875" y1="88" x2="48.1875" y2="88" style="visibility: inherit;" fill="rgb(0, 0, 0)" stroke="rgb(204, 204, 204)" stroke-width="1px"></line><line x1="53.1875" y1="66" x2="48.1875" y2="66" style="visibility: inherit;" fill="rgb(0, 0, 0)" stroke="rgb(204, 204, 204)" stroke-width="1px"></line><line x1="53.1875" y1="43.99999999999998" x2="48.1875" y2="43.99999999999998" style="visibility: inherit;" fill="rgb(0, 0, 0)" stroke="rgb(204, 204, 204)" stroke-width="1px"></line><line x1="53.1875" y1="22.00000000000002" x2="48.1875" y2="22.00000000000002" style="visibility: inherit;" fill="rgb(0, 0, 0)" stroke="rgb(204, 204, 204)" stroke-width="1px"></line><line x1="53.1875" y1="0" x2="48.1875" y2="0" style="visibility: inherit;" fill="rgb(0, 0, 0)" stroke="rgb(204, 204, 204)" stroke-width="1px"></line></g><g transform="translate(43.1875, 0)"><text x="0" y="176" dx="0em" dy="0.3em" style="text-anchor: end; visibility: hidden; font-family: Roboto, sans-serif; font-size: 12px; font-weight: 200;" fill="rgb(33, 33, 33)" stroke="none" stroke-width="1px">0.15</text><text x="0" y="154" dx="0em" dy="0.3em" style="text-anchor: end; visibility: inherit; font-family: Roboto, sans-serif; font-size: 12px; font-weight: 200;" fill="rgb(33, 33, 33)" stroke="none" stroke-width="1px">0.2</text><text x="0" y="132" dx="0em" dy="0.3em" style="text-anchor: end; visibility: hidden; font-family: Roboto, sans-serif; font-size: 12px; font-weight: 200;" fill="rgb(33, 33, 33)" stroke="none" stroke-width="1px">0.25</text><text x="0" y="110" dx="0em" dy="0.3em" style="text-anchor: end; visibility: inherit; font-family: Roboto, sans-serif; font-size: 12px; font-weight: 200;" fill="rgb(33, 33, 33)" stroke="none" stroke-width="1px">0.3</text><text x="0" y="88" dx="0em" dy="0.3em" style="text-anchor: end; visibility: hidden; font-family: Roboto, sans-serif; font-size: 12px; font-weight: 200;" fill="rgb(33, 33, 33)" stroke="none" stroke-width="1px">0.35</text><text x="0" y="66" dx="0em" dy="0.3em" style="text-anchor: end; visibility: inherit; font-family: Roboto, sans-serif; font-size: 12px; font-weight: 200;" fill="rgb(33, 33, 33)" stroke="none" stroke-width="1px">0.4</text><text x="0" y="43.99999999999998" dx="0em" dy="0.3em" style="text-anchor: end; visibility: hidden; font-family: Roboto, sans-serif; font-size: 12px; font-weight: 200;" fill="rgb(33, 33, 33)" stroke="none" stroke-width="1px">0.45</text><text x="0" y="22.00000000000002" dx="0em" dy="0.3em" style="text-anchor: end; visibility: inherit; font-family: Roboto, sans-serif; font-size: 12px; font-weight: 200;" fill="rgb(33, 33, 33)" stroke="none" stroke-width="1px">0.5</text><text x="0" y="0" dx="0em" dy="0.3em" style="text-anchor: end; visibility: hidden; font-family: Roboto, sans-serif; font-size: 12px; font-weight: 200;" fill="rgb(33, 33, 33)" stroke="none" stroke-width="1px">0.55</text></g><line x1="53.1875" y1="0" x2="53.1875" y2="176" fill="rgb(0, 0, 0)" stroke="rgb(204, 204, 204)" stroke-width="1px"></line></g></g><g transform="translate(53, 0)" clip-path="url(#clip_0)"><clipPath id="clip_0"><rect width="276" height="176"></rect></clipPath><g><g><g><line x1="0" y1="0" x2="0" y2="176" fill="rgb(0, 0, 0)" stroke="rgb(66, 66, 66)" stroke-width="1px" opacity="0.25"></line><line x1="30.756944444444443" y1="0" x2="30.756944444444443" y2="176" fill="rgb(0, 0, 0)" stroke="rgb(66, 66, 66)" stroke-width="1px" opacity="0.25"></line><line x1="61.513888888888886" y1="0" x2="61.513888888888886" y2="176" fill="rgb(0, 0, 0)" stroke="rgb(66, 66, 66)" stroke-width="1px" opacity="0.25"></line><line x1="92.27083333333333" y1="0" x2="92.27083333333333" y2="176" fill="rgb(0, 0, 0)" stroke="rgb(66, 66, 66)" stroke-width="1px" opacity="0.25"></line><line x1="123.02777777777777" y1="0" x2="123.02777777777777" y2="176" fill="rgb(0, 0, 0)" stroke="rgb(66, 66, 66)" stroke-width="1px" opacity="0.25"></line><line x1="153.78472222222223" y1="0" x2="153.78472222222223" y2="176" fill="rgb(0, 0, 0)" stroke="rgb(66, 66, 66)" stroke-width="1px" opacity="0.25"></line><line x1="184.54166666666666" y1="0" x2="184.54166666666666" y2="176" fill="rgb(0, 0, 0)" stroke="rgb(66, 66, 66)" stroke-width="1px" opacity="0.25"></line><line x1="215.29861111111111" y1="0" x2="215.29861111111111" y2="176" fill="rgb(0, 0, 0)" stroke="rgb(66, 66, 66)" stroke-width="1px" opacity="0.25"></line><line x1="246.05555555555554" y1="0" x2="246.05555555555554" y2="176" fill="rgb(0, 0, 0)" stroke="rgb(66, 66, 66)" stroke-width="1px" opacity="0.25"></line><line x1="276.8125" y1="0" x2="276.8125" y2="176" fill="rgb(0, 0, 0)" stroke="rgb(66, 66, 66)" stroke-width="1px" opacity="0.25"></line></g><g><line x1="0" y1="176" x2="276.8125" y2="176" fill="rgb(0, 0, 0)" stroke="rgb(66, 66, 66)" stroke-width="1px" opacity="0.25"></line><line x1="0" y1="154" x2="276.8125" y2="154" fill="rgb(0, 0, 0)" stroke="rgb(66, 66, 66)" stroke-width="1px" opacity="0.25"></line><line x1="0" y1="132" x2="276.8125" y2="132" fill="rgb(0, 0, 0)" stroke="rgb(66, 66, 66)" stroke-width="1px" opacity="0.25"></line><line x1="0" y1="110" x2="276.8125" y2="110" fill="rgb(0, 0, 0)" stroke="rgb(66, 66, 66)" stroke-width="1px" opacity="0.25"></line><line x1="0" y1="88" x2="276.8125" y2="88" fill="rgb(0, 0, 0)" stroke="rgb(66, 66, 66)" stroke-width="1px" opacity="0.25"></line><line x1="0" y1="66" x2="276.8125" y2="66" fill="rgb(0, 0, 0)" stroke="rgb(66, 66, 66)" stroke-width="1px" opacity="0.25"></line><line x1="0" y1="43.99999999999998" x2="276.8125" y2="43.99999999999998" fill="rgb(0, 0, 0)" stroke="rgb(66, 66, 66)" stroke-width="1px" opacity="0.25"></line><line x1="0" y1="22.00000000000002" x2="276.8125" y2="22.00000000000002" fill="rgb(0, 0, 0)" stroke="rgb(66, 66, 66)" stroke-width="1px" opacity="0.25"></line><line x1="0" y1="0" x2="276.8125" y2="0" fill="rgb(0, 0, 0)" stroke="rgb(66, 66, 66)" stroke-width="1px" opacity="0.25"></line></g></g></g><g><g><line x1="0" y1="242" x2="276.8125" y2="242" fill="rgb(0, 0, 0)" stroke="rgb(153, 153, 153)" stroke-width="1.5px"></line></g></g><g><g><line x1="30.756944444444443" y1="0" x2="30.756944444444443" y2="176" fill="rgb(0, 0, 0)" stroke="rgb(153, 153, 153)" stroke-width="1.5px"></line></g></g><g><g><g><g><g><path stroke="rgb(255, 112, 67)" stroke-width="2px" d="M38.753750000000004,-4.4489560420332595L39.12283333333333,0.5646313020556004L39.18434722222222,2.2828608801679664L39.61494444444444,4.609774306618139L39.73797222222222,7.909125369465109L39.799486111111115,7.949278093532284L39.984027777777776,11.87465109338039L40.414625,14.88217953791719L40.59916666666667,10.858199664408147L40.72219444444444,14.192948669878612L40.84522222222222,17.676235683187997L41.214305555555555,19.874133305587787L41.275819444444444,20.5104544859823L41.33733333333333,21.408695691981123L41.64490277777777,18.786977287527115L42.0755,23.104105851983313L42.137013888888895,22.8498013865528L42.19852777777778,23.068920424676328L42.44458333333333,22.78850658601175L42.50609722222222,24.453794430890426L42.56761111111111,21.556443185323637L42.99820833333333,27.516147309973675L43.18275,27.250211056729867L43.244263888888895,32.75987022916329L43.30577777777778,32.361793051957115L43.36729166666667,32.10866404223377L43.490319444444445,34.739023689317534L43.736375,35.31466503375046L43.859402777777774,36.78644792695808L43.98243055555555,39.24096646583064L44.29,41.07788390324106L44.35151388888889,42.94872495177744L44.536055555555556,40.373881939908L44.843625,37.23100755444768L45.45876388888889,37.50537527699236L45.766333333333336,40.23261082827432L45.827847222222225,39.78929508125415L45.88936111111111,39.31307766673341L46.62752777777778,39.02593625686989L46.68904166666667,42.173606283083124L46.75055555555556,44.35479128755006L47.42720833333333,49.66289527652786L47.611749999999994,46.46524605416137L47.73477777777778,43.321318061726544L47.85780555555556,45.29592270349099L48.103861111111115,45.23265625652455L48.28840277777778,46.312765083413026L48.472944444444444,49.009147335112495L48.59597222222222,47.564294057500625L48.90354166666667,45.72723877275718L49.02656944444444,47.518808244733414L49.08808333333334,50.174629616182074L49.580194444444444,48.813968424463894L49.70322222222222,51.82440781859437L49.94927777777777,53.4766249195807L50.19533333333334,50.08003909206823L50.318361111111116,52.77343897114062L50.379875,53.823206162988335L50.564416666666666,52.967922339760776L51.487125,54.45302446480007L51.548638888888895,57.55008416053901L51.85620833333333,60.0761032383278L51.979236111111106,60.86097318414656L52.04075,58.45953492214565L52.40983333333333,59.84275529319222L52.53286111111111,60.0769367071043L52.77891666666667,58.465168181183955L53.024972222222225,60.36853705830755L53.148,61.91950632922281L53.209513888888885,57.79190231437941L53.271027777777775,58.70191941902314L53.33254166666667,58.4533854618387L54.00919444444445,59.371192997379126L54.501305555555554,59.34446395974338L54.74736111111111,64.42934483016121L54.87038888888889,62.32329951360577L55.177958333333336,63.87480732580873L55.48552777777778,64.43668010700259L55.608555555555554,65.8151088408739L55.916125,68.3410105140275L56.22369444444444,67.02782617993749L56.28520833333334,66.67204210154773L56.654291666666666,67.33779976959562L56.715805555555555,68.76468061325272L56.96186111111111,67.14746240924191L57.577,66.31644423097607L57.63851388888889,67.92461337620163L57.761541666666666,66.25029891713946L58.00759722222222,63.999070989993136L58.06911111111111,63.627084939424336L58.19213888888889,62.708494024720316L58.43819444444444,63.50546302631291L58.56122222222222,63.12421697518104L58.80727777777778,63.22029463136715L59.114847222222224,66.73558282664136L59.360902777777774,64.900290583436L59.42241666666667,63.098864135065256L59.54544444444444,64.50025609548005L59.66847222222222,63.043815728516094L59.91452777777778,66.63399131088894L59.97604166666667,68.48324512833024L60.28361111111111,66.21996559735335L60.345125,66.07594898960708L60.71420833333333,64.69594990981649L60.83723611111111,65.13461592062137L61.14480555555556,67.12942677893531L61.39086111111111,67.76895741318638L62.06751388888888,68.96165482816085L62.12902777777778,68.50799560914625L62.19054166666666,69.61939697486274L62.25205555555556,70.5665312589533L62.31356944444445,72.75054068454067L62.37508333333333,70.4929612820623L62.559625000000004,73.45325348051057L62.621138888888886,72.11905673308175L62.682652777777776,72.31362297036051L63.543847222222226,67.29390813051343L63.60536111111111,67.87705088340451L63.72838888888889,68.3885728876782L63.78990277777778,73.01374580627636L63.851416666666665,70.46290656427121L63.974444444444444,71.47669117748485L64.09747222222222,71.84720712363568L64.2205,71.9977255192986L64.34352777777778,71.07624628112262L64.58958333333334,72.5225910303923L64.71261111111112,73.56669459092214L64.95866666666666,74.30199480859991L65.32775,69.80483189111087L65.45077777777779,69.15907348921974L65.69683333333333,69.14846571523594L66.00440277777777,69.03910088681369L66.68105555555556,70.84095988358968L66.74256944444444,70.51781226209353L66.92711111111112,71.80281029350488L67.0501388888889,72.63582321528749L67.11165277777778,75.77703941180799L67.29619444444444,77.05598948189314L67.41922222222222,78.58818439119275L67.84981944444445,77.09142706080209L68.15738888888889,76.65589516928152L68.46495833333333,74.42590232831449L68.52647222222222,70.10941484059222L68.6495,71.82902781060533L69.01858333333332,75.09937200481414L69.08009722222222,67.74840618094633L69.2646388888889,67.24186177802582L69.38766666666666,67.97004535050691L69.44918055555556,69.6605394020766L69.69523611111111,70.00147691578209L69.94129166666666,69.59806727892483L70.31037500000001,72.01890907005267L70.37188888888889,75.25824170896887L70.67945833333334,76.70132773869919L70.80248611111111,78.42997947784474L71.04854166666667,79.67140845925937L71.23308333333334,77.23161638063984L71.3561111111111,78.4011768596339L71.78670833333334,79.58838868719148L71.97125,80.57694945682175L72.27881944444445,76.55975724428347L72.34033333333332,76.05361004572781L72.58638888888889,76.30729858816666L72.83244444444445,75.55097337210776L73.32455555555556,78.93658187177542L73.44758333333333,82.65403505675056L73.5706111111111,79.63075378246344L73.632125,79.7621070546343L73.93969444444446,82.02011966719832L74.43180555555556,81.9947764397538L74.73937500000001,80.98639022832373L74.86240277777777,81.54699074939046L75.04694444444445,80.1598279220769L75.10845833333333,79.82064278977566L75.23148611111111,80.94415903125676L75.35451388888889,82.38519697209877L75.41602777777777,79.47652147305416L75.53905555555556,75.92952402885203L75.60056944444445,77.42956233296064L75.72359722222222,77.07630562945167L75.7851111111111,79.41130957701182L75.846625,77.60949307500347L76.15419444444444,81.21909369122399L76.52327777777778,80.73673699552666L77.75355555555556,81.98616231831821L77.81506944444443,83.06614502282686L78.24566666666666,80.2792729855284L78.43020833333333,80.7186557484093L78.49172222222222,77.39173546030656L78.61474999999999,78.86240924951159L78.73777777777778,80.52413614724112L78.86080555555556,85.83138585170529L79.22988888888888,77.60732798624291L80.21411111111112,80.15732358007581L80.27562499999999,80.54695485895249L80.33713888888889,77.9953179768644L80.39865277777778,78.80800001692309L80.58319444444444,82.61906266731937L81.07530555555554,80.85625224425148L81.13681944444444,84.63758052059264L81.69044444444444,80.34301107328089L81.9365,81.30689020872683L81.99801388888889,83.06346466493947L82.12104166666667,82.70477496595586L82.18255555555555,83.130976742574L82.36709722222223,82.1102028286865L82.42861111111111,78.5625406501538L82.61315277777778,80.60759265409985L82.73618055555555,81.87164978496479L83.10526388888889,81.03568222708851L83.47434722222224,79.95749065034003L83.6588888888889,82.36318753214127L83.78191666666666,79.74130662710336L84.02797222222223,78.76820898312846L84.27402777777779,80.39393129502844L84.33554166666666,78.91241449448535L85.13522222222223,78.94417492349783L85.25825,77.29694375872516L85.62733333333334,81.45438037800733L85.811875,80.20624953799214L85.93490277777778,82.45374373372059L86.18095833333334,84.6803930984477L86.24247222222222,88.11279823699826L86.61155555555555,85.81758510064623L86.73458333333333,88.19226061696735L86.79609722222222,84.93927337762669L87.22669444444445,84.31118289254282L87.41123611111111,84.90886215938433L87.84183333333334,87.21879227503123L87.9648611111111,81.69383640017502L88.026375,85.90720083073612L88.0878888888889,84.54779072854421L88.70302777777778,83.10568840654791L89.13362500000001,80.48732089610158L89.31816666666667,83.17022237546004L89.50270833333333,86.28386951307508L89.99481944444445,85.05551209938558L90.3023888888889,86.97568892772217L90.91752777777778,86.2898476561023L90.97904166666666,89.39256456137376L91.16358333333332,88.84361740732597L91.40963888888888,87.78723695745711L91.65569444444445,88.94902197641521L91.77872222222221,88.37032709194654L91.90175,87.85015989347359L92.02477777777777,87.07874189021622L92.20931944444445,90.07446109177135L92.39386111111111,92.38385645700372L92.455375,92.01695404143855L92.51688888888889,88.8696871381505L92.63991666666666,88.2678036082687L93.07051388888888,89.21965414219511L93.19354166666666,90.60413373669036L93.62413888888888,88.75532758927372L93.87019444444444,86.76138699469583L93.99322222222222,85.06309287796984L94.42381944444443,88.13053265244108L94.48533333333333,89.34929766077008L94.54684722222223,89.34321669231774L94.91593055555556,89.48061177427125L95.10047222222222,89.35107420262426L95.71561111111112,92.33352707848985L95.83863888888888,88.64014014617226L95.96166666666667,90.43280072817578L96.08469444444444,92.06864306813105L96.57680555555557,93.72321890285984L96.63831944444443,91.86598023469077L96.69983333333333,91.28485970911281L96.76134722222223,89.86663687954484L97.00740277777778,89.29715583759628L97.19194444444445,92.31370161794473L97.56102777777778,88.8884282041958L97.62254166666668,86.88348702963418L98.29919444444444,86.78966367468968L98.54525,87.38229639664732L98.66827777777777,86.58557710251476L98.85281944444444,91.01583877325812L98.97584722222223,92.38962249231791L99.09887499999999,93.23875501318248L99.28341666666667,91.36659504511043L99.71401388888889,92.79658800088217L99.77552777777778,93.78847297264846L99.96006944444444,92.38397302766867L100.02158333333334,91.5590018662228L100.1446111111111,93.03817411854348L100.206125,89.76025264617493L100.39066666666668,89.6859920570653L100.51369444444444,87.43792351182708L100.8212638888889,93.53348650989778L101.25186111111111,94.7666147140136L101.55943055555555,95.11910149976438L101.62094444444445,94.35063646748557L102.23608333333334,94.3641701609784L102.3591111111111,93.35621476595959L102.54365277777778,91.12340216890192L102.97425,92.12292559775837L103.09727777777779,89.19840488334376L103.15879166666666,92.30239225327895L103.22030555555556,91.66587281763512L103.46636111111111,91.58537707650636L103.58938888888889,92.36382943346484L103.89695833333334,92.2493173477315L104.14301388888889,95.72565785630124L104.20452777777778,91.65644049396263L104.38906944444444,89.95015196651309L104.94269444444444,91.05283892542177L105.43480555555556,92.47158649200234L105.68086111111111,92.67209870001096L105.98843055555555,91.85302061069262L106.11145833333335,94.57276398079546L106.35751388888889,91.64834369502637L107.28022222222222,93.64075849820478L107.40325,93.22458027821364L107.58779166666666,91.9289997042512L107.64930555555556,93.06409642823309L107.71081944444445,90.33807667331558L107.77233333333332,90.10563683650888L107.89536111111111,94.33241582001443L108.07990277777778,91.70666804364441L108.26444444444445,92.53252314598035L108.32595833333333,93.58653029841585L108.69504166666667,94.90831761981491L108.94109722222223,90.60102246657276L109.24866666666667,91.5108670619444L109.37169444444446,95.04614416523671L109.61775,94.3436676964992L109.80229166666666,94.47428199683628L110.10986111111112,95.97616875788569L110.29440277777778,96.26633365524413L110.60197222222222,95.74844269497751L110.66348611111111,95.77189610328413L110.84802777777777,95.97485336021266L111.09408333333333,93.88302898618987L111.34013888888889,94.45341911443118L111.64770833333333,93.25452169494656L111.95527777777778,91.60196094940203L112.07830555555556,90.15796755093395L112.26284722222222,93.15442122422493L112.32436111111112,93.22533467652103L112.87798611111111,92.0504435732466L113.49312499999999,90.86339554992331L113.67766666666667,91.85496789101967L114.04674999999999,94.32706135442379L114.41583333333334,95.22310582357959L114.66188888888888,94.71119246219584L114.90794444444444,98.3026507457196L115.33854166666667,98.6858515596449L115.40005555555555,92.86974581814167L115.64611111111113,94.94139886341306L116.01519444444445,94.86217847133764L116.26124999999999,97.44025086560899L116.44579166666668,94.92055739879044L116.69184722222222,93.96374210071224L117.922125,90.13887710780892L118.16818055555555,91.96010944492218L118.78331944444444,96.5984683349526L119.09088888888888,98.82073938338735L119.21391666666666,99.45532481365669L119.27543055555556,101.20854788120549L119.33694444444444,102.21854627785657L119.39845833333334,104.8079842845057L119.89056944444445,104.06799598452176L120.38268055555555,102.95293624351454L120.44419444444445,100.0533281752469L120.56722222222221,101.59584187203654L120.62873611111111,98.89863652428394L121.36690277777778,99.6082785751844L121.42841666666666,100.59555291094924L121.55144444444444,100.15965203618137L122.22809722222222,100.50607841119245L122.41263888888889,102.64205723348306L122.65869444444445,100.75334070529367L122.90475,101.40741042140618L123.15080555555555,100.09136712457833L123.58140277777777,96.70240976754485L123.64291666666666,98.13227359261307L123.70443055555556,102.13527150038594L123.82745833333334,101.78598448684043L124.012,100.28661020428079L124.75016666666666,100.6107767571815L125.11925000000001,100.2627018064146L125.30379166666667,101.3343958717516L125.36530555555555,101.5123721040446L125.54984722222223,98.73720937235109L125.98044444444444,101.66568196572635L126.16498611111112,102.26874092076883L126.2265,101.58155028137367L126.84163888888888,99.39076395102023L127.02618055555556,102.48691999475767L127.08769444444445,98.49654156899815L127.21072222222222,97.22652010283686L127.45677777777777,99.5721150646318L127.51829166666667,98.28441035805398L127.70283333333333,102.42767584358606L127.94888888888889,100.47715890428394L128.25645833333334,96.37040255082229L128.87159722222222,98.98025420673241L128.93311111111112,101.86067745308607L129.24068055555557,103.53100331557111L129.36370833333334,99.24946403463078L129.85581944444445,102.69043245291346L130.84004166666668,101.31673196778078L131.33215277777776,102.74946730032791L131.45518055555556,103.4094443839504L131.63972222222222,102.87956736813271L132.00880555555554,104.7219170947688L132.07031944444444,104.39843241094455L132.50091666666668,103.00626249145809L132.99302777777777,103.38748704809753L133.23908333333333,105.7761462892223L133.48513888888888,104.66530544549994L133.73119444444444,97.5499269425319L133.9157361111111,101.04333078023473L134.0387638888889,99.94932105038569L134.40784722222222,101.22633062537912L134.4693611111111,103.73537236891033L134.530875,103.26240958238746L134.59238888888888,103.56554978767102L134.96147222222223,104.59833789872565L135.0229861111111,105.75416026715898L135.45358333333334,105.31219712617673L135.5766111111111,103.55709671808887L135.7611527777778,100.59708313842776L135.88418055555556,103.52325251519778L135.94569444444446,103.65964280855714L136.00720833333332,102.92061755235231L136.43780555555554,100.41349600061915L136.6838611111111,99.61082743588173L136.745375,98.30613240589548L136.8684027777778,102.86948915117891L137.17597222222224,102.90650918360895L137.66808333333333,102.05341125891415L137.72959722222222,104.17258592466001L137.97565277777778,104.56036221992662L138.09868055555555,101.76355278498943L138.40625,104.65402820114502L138.5907916666667,104.11888472082741L138.65230555555556,105.05511188413217L139.32895833333333,108.27005834523152L139.9440972222222,106.60381328548974L140.067125,105.30297028712027L140.25166666666667,106.7528950911259L140.49772222222222,104.3311510408816L140.55923611111112,105.96878616362198L140.62075000000002,106.19897351473202L140.80529166666668,107.0371324647047L140.98983333333334,103.90412781408894L141.2358888888889,105.472415100166L141.48194444444442,106.01446312107372L142.6507083333333,101.29219084642962L142.8967638888889,103.99336193598886L143.14281944444443,105.18198002933013L143.32736111111112,104.15197394823163L143.4503888888889,103.89564317783793L143.69644444444444,102.01672703219103L143.81947222222223,104.52786849851995L144.3730972222222,107.23117956468812L144.6191527777778,109.66164169877382L145.17277777777778,106.64842573505408L145.48034722222224,107.17517528356174L145.5418611111111,105.73731113327182L145.603375,106.08674989254854L146.03397222222222,108.5546590930914L146.40305555555554,105.62651818076938L146.58759722222223,106.66085048365693L146.7721388888889,106.92577750592292L146.89516666666665,108.74278091853179L147.3257638888889,106.20907873788664L147.57181944444443,108.7960027389478L147.75636111111112,103.2198397834749L148.12544444444444,108.22342856643502L148.18695833333334,110.55421085308734L148.24847222222223,112.09782039612975L148.4330138888889,113.58076502973105L148.74058333333332,112.52137028035085L149.10966666666667,112.16724378381109L149.17118055555554,110.69070929595195L149.78631944444444,108.44556619112707L149.84783333333334,111.74717245927462L150.0938888888889,109.08401791114215L150.15540277777777,108.29497833167676L150.40145833333332,113.23331968256929L150.52448611111112,109.42052712600886L150.89356944444444,110.18281458950915L151.07811111111113,112.36941699467226L151.32416666666666,113.07151277233439L151.38568055555555,112.82007746320531L151.50870833333335,112.01724207652549L151.5702222222222,108.06275108011327L151.69325,107.55291334719517L152.36990277777775,109.63305616337693L152.49293055555555,108.78247613882205L152.98504166666666,110.2782263945054L153.04655555555556,111.10114737692543L153.23109722222222,109.20904858316821L155.07651388888888,109.62623996380474L155.38408333333334,108.17944127824013L155.69165277777776,111.120726385749L155.93770833333335,111.1207889312724L155.99922222222224,110.57742283309815L156.42981944444443,112.96002896765062L156.675875,111.68129730307574L157.10647222222224,108.77337846805759L157.16798611111113,107.11726070433916L157.22949999999997,106.92621188753881L157.90615277777778,108.9583521210792L157.96766666666667,111.00364648840682L158.09069444444444,112.99029786313685L158.33675,112.52325014427372L158.64431944444445,113.4449820766155L159.13643055555556,111.44161140020516L159.25945833333333,111.78939606604472L159.75156944444444,114.26847120438514L159.81308333333334,116.81155650803146L159.9361111111111,114.70139752023636L160.12065277777776,112.55484663363228L160.24368055555556,111.1516946012731L160.48973611111109,110.29200638860202L160.55124999999998,110.76168425994955L160.79730555555557,114.7796374328008L160.85881944444446,115.67409292263211L161.104875,118.25757779718889L161.1663888888889,115.59003833557041L161.35093055555555,114.33031685128732L161.41244444444445,115.21101006850557L161.5969861111111,112.61524329772566L162.1506111111111,114.11155949944839L162.33515277777778,113.29260289022079L162.95029166666666,114.09117786496131L163.56543055555557,114.21063266044409L163.7499722222222,114.49553376344173L164.18056944444444,113.10867890064316L164.61116666666666,112.1278957864308L165.28781944444447,113.99335486535215L165.4108472222222,114.53986400868884L165.71841666666668,112.32746769491665L166.0259861111111,112.3536189645757L166.14901388888887,115.09425860942781L166.27204166666667,111.47995346964228L166.641125,109.56317187655466L166.76415277777778,112.09510308091936L166.94869444444447,110.27239769449889L167.01020833333334,112.3756714925233L167.37929166666666,113.61707455307625L167.62534722222222,112.0386193656348L168.302,113.96852226635356L168.48654166666668,115.63736307370982L168.7941111111111,115.60878131239608L169.59379166666668,114.23597134023305L170.0243888888889,118.08539393466353L170.20893055555555,116.56868345094703L171.070125,116.5333062085687L171.7467777777778,115.94956794221274L172.23888888888888,116.66392401956959L172.54645833333333,119.6646936184373L172.6079722222222,122.67086102045812L172.91554166666668,122.02712083743354L173.2231111111111,119.92293973497357L173.4076527777778,119.52698676426294L173.71522222222222,118.7370577850287L174.20733333333334,115.07763267745644L174.391875,116.49904208892625L174.69944444444442,120.49366286703373L174.82247222222222,119.87441932742851L174.8839861111111,117.96278550377521L174.9455,121.27680279106518L175.06852777777777,120.78002801710737L175.4376111111111,120.24963712200147L175.74518055555555,121.05371989908589L175.8682083333333,119.45238450826866L176.72940277777778,118.57460968292752L177.03697222222223,117.32658172009583L177.40605555555555,116.709010555495L177.713625,119.05419041761705L177.8366527777778,118.52339302330584L177.95968055555554,122.82088186043126L178.02119444444443,122.87211295186057L178.20573611111112,122.63001682888614L178.26725000000002,122.73635083753551L180.11266666666666,123.56066979359798L180.29720833333332,122.78855899209506L180.5432638888889,122.17986909887034L180.6047777777778,121.9233201524069L180.78931944444443,123.13816996696295L180.91234722222222,120.92135489155473L180.97386111111112,118.57514827352534L181.7120277777778,117.78790627063374L182.2041388888889,121.7566321023766L182.32716666666664,120.9608499126711L182.38868055555554,119.09398774606457L182.63473611111112,119.12569730462118L182.88079166666665,119.98901806462695L183.12684722222224,120.46755081527763L183.55744444444443,120.08507760830722L183.61895833333332,123.22892380039694L183.8650138888889,118.55183363128185L184.11106944444444,118.58867673974325L184.4186388888889,118.34881065428905L184.54166666666666,118.22712019765764L184.72620833333335,116.79549195578332L184.8492361111111,118.62350431806226L184.91075,118.75901708439815L185.03377777777777,119.00438438317673L185.34134722222223,118.19912730730474L185.58740277777775,118.5978604976946L185.64891666666665,120.96965541986312L185.71043055555555,119.54605793087295L185.83345833333334,121.09044947104817L185.95648611111113,120.28844193146924L186.26405555555556,120.19288613513885L186.38708333333332,117.60382152864801L186.87919444444444,119.33847823899669L187.18676388888886,121.04627923465776L188.54006944444444,123.69954993901855L188.60158333333334,125.6401246701372L188.72461111111113,128.89124695746256L189.15520833333335,129.8817665117273L189.2782361111111,127.87095615490016L189.33975,127.7758247686847L189.64731944444443,127.29211639365103L189.70883333333333,125.61264538169233L189.77034722222223,125.29887766480644L189.9548888888889,125.12442242407917L190.01640277777776,122.90187036576344L190.20094444444445,122.73949982871098L190.63154166666666,122.58931070655275L190.75456944444446,123.50407956892066L190.87759722222222,123.38397220882067L191.06213888888888,122.7749347931879L191.73879166666666,123.17729026357753L191.80030555555555,123.12443159985793L191.86181944444445,123.91668624262961L192.35393055555556,126.3290316735563L192.41544444444446,125.01723883598191L192.7230138888889,126.10099271565167L192.78452777777778,127.66461946743419L192.84604166666665,127.86325255738313L192.90755555555555,124.03265909973749L193.03058333333334,123.89242318048457L193.09209722222224,123.50750037893283L193.15361111111113,121.34842894592657L193.33815277777776,121.85059779953227L194.01480555555557,123.33720613760508L194.3838888888889,123.30533252503133L194.50691666666665,124.6871983667949L194.99902777777777,125.1456756866419L195.06054166666667,127.80804540374538L195.12205555555556,125.12151642834344L195.24508333333335,125.63225109693528L195.67568055555554,125.53536157201005L195.86022222222223,124.28901498550341L195.98325,125.39031620642044L196.16779166666666,123.53718378436864L196.29081944444445,124.60713282997786L196.41384722222224,124.14337553844082L196.96747222222223,124.73986987033622L197.21352777777778,126.07999999379598L197.33655555555555,128.84576515588452L197.45958333333334,132.18490793844038L197.5826111111111,131.95206739032255L197.644125,131.2321905226945L197.89018055555556,130.4017334420347L197.95169444444446,129.3871890329637L198.01320833333335,128.58240173001994L198.32077777777778,128.70572861278004L198.6283472222222,129.46392550613848L198.6898611111111,131.4460202607296L198.93591666666666,131.17998608069314L199.2434861111111,130.47479567597324L199.305,131.26816335719832L199.36651388888887,131.83674354196793L199.42802777777777,128.50144092345957L199.55105555555556,130.70177121224836L199.61256944444446,132.19520289458535L200.10468055555557,132.09665493224682L200.16619444444444,132.63387753996028L200.22770833333334,130.10537458916173L200.53527777777776,129.79497505104345L200.59679166666666,130.23941398188953L200.84284722222222,127.44200997665811L201.02738888888888,125.29286254117065L201.21193055555557,126.20215509336695L201.33495833333336,126.98017205000822L201.4579861111111,128.4734905552918L201.6425277777778,126.61717901182499L201.70404166666668,127.57648740740015L202.0116111111111,127.92203857023355L202.073125,128.88320542287133L202.81129166666668,129.8798421914059L202.93431944444447,129.18062643377056L203.734,125.98507549862906L203.79551388888888,126.78973027766253L204.47216666666668,130.67363713205162L204.53368055555558,132.87376893770875L205.08730555555556,131.38659132249464L205.21033333333332,128.44570553736276L205.33336111111112,128.04349639675848L205.51790277777778,125.88362042106289L205.70244444444444,122.86454935072125L205.8869861111111,124.26750175475037L206.13304166666668,124.12266516875596L206.19455555555558,124.66704506988152L206.502125,126.12816445419087L206.62515277777777,126.77161836855944L206.74818055555556,127.01598091264569L206.80969444444443,129.42899543845655L207.05575,130.8724847245455L207.85543055555556,132.72304365684033L207.97845833333332,134.42820929079915L208.03997222222222,136.55983108633555L208.163,135.17663518401264L208.47056944444444,133.96977071650193L208.59359722222223,132.25067527703862L208.716625,134.19489574201356L208.8396527777778,134.0728952870813L209.3317638888889,135.51754827416224L209.82387500000002,136.4087119288223L210.00841666666668,136.50418945473294L210.06993055555554,135.34992454243817L210.2544722222222,135.18542960758873L210.3775,132.05163194820804L210.4390138888889,132.5970866804452L210.62355555555555,131.585805852719L210.9926388888889,135.53412086934318L211.23869444444443,135.49638781053108L211.30020833333333,134.0659785336392L212.1614027777778,135.09067111409524L212.34594444444443,134.5213362049867L212.53048611111112,134.44357712696845L212.71502777777778,135.69040064591678L212.96108333333333,132.844774082771L213.145625,131.6677464458174L213.2071388888889,131.08597244100727L213.2686527777778,130.39428575800034L213.6377361111111,131.42096395472393L213.94530555555554,131.95710470187487L214.00681944444443,132.0265470618476L214.31438888888889,132.09305116382058L214.43741666666665,132.80953834561595L214.8680138888889,133.51509522264058L215.05255555555556,135.17228602686436L215.17558333333332,132.23801259588546L215.23709722222222,132.94471605057328L215.360125,132.6437506165195L215.4216388888889,130.61671101368003L215.54466666666664,129.71042139122804L215.91375,129.55988616222095L216.4058611111111,132.7599736361143L216.467375,130.29938513686878L216.77494444444443,132.97444166332852L217.0825138888889,136.2753459786795L217.39008333333334,136.45864664169684L218.1897638888889,138.33977142961345L218.25127777777777,137.3356578826399L218.31279166666667,138.10819762226888L218.92793055555555,139.20627370641796L219.35852777777777,139.4246660659681L219.54306944444446,140.42936180770218L219.8506388888889,139.92331327640903L220.4042638888889,139.0041877606147L220.46577777777776,135.0812968360563L220.52729166666666,136.31921109838368L220.8348611111111,137.26044359971928L221.20394444444443,135.61118835908084L221.38848611111112,135.4285791081304L221.63454166666665,134.7788855649301L221.69605555555555,134.55502784355096L221.75756944444444,133.70988252224691L221.88059722222224,134.12418443240026L222.12665277777776,135.84741667674362L222.31119444444445,137.1992182956122L222.37270833333335,138.06803065693276L222.61876388888888,135.7398374447578L222.68027777777777,135.1861675005766L222.74179166666667,135.79575325379443L223.04936111111112,133.9595450957398L223.1723888888889,132.57913177012088L223.78752777777777,133.77610869883705L223.84904166666666,133.7663674097014L224.09509722222222,137.25688436870294L224.21812500000001,136.96507303264448L224.52569444444444,136.0067375680608L224.64872222222223,135.52573305253998L224.83326388888887,134.41094964674005L225.57143055555557,134.00281892973715L225.75597222222223,134.2737412140282L225.9405138888889,137.75998929056598L226.24808333333334,135.58386127300903L226.43262499999997,139.76267175762558L226.80170833333335,139.16625001960222L226.98624999999998,142.60652081330554L227.10927777777778,142.03172435855825L227.41684722222223,140.99342464504218L227.539875,141.75046448169695L227.78593055555555,141.90124519025412L227.84744444444445,142.2800191363998L228.33955555555556,144.76749902494595L228.58561111111112,145.61087664084343L228.647125,145.29235901902146L228.83166666666668,143.3644155887963L228.95469444444444,141.75449234415302L229.38529166666666,144.01567405563122L229.63134722222225,142.5609800464006L229.87740277777777,143.23943412578652L230.12345833333333,144.77186348603098L230.2464861111111,141.20267602542597L230.61556944444445,143.17341244661543L231.3537361111111,143.7255270745977L231.47676388888888,142.04121424356842L231.59979166666668,143.04821182250825L231.78433333333334,140.47931085204988L231.968875,143.97789989814703L232.15341666666666,143.86862112823454L232.21493055555555,143.309933434387L232.52249999999998,142.60807810453176L233.0146111111111,141.93981853859185L233.38369444444444,142.38561258159015L233.5682361111111,141.7185422983285L233.62975,140.43883860150075L234.1218611111111,140.07836453937944L234.6139722222222,138.1972744513956L235.1675972222222,139.63310261067195L235.41365277777777,139.7844874113586L235.84425,138.30778765975157L236.21333333333334,141.35719809710216L236.3363611111111,142.21087361442588L236.5209027777778,147.53007407824717L237.01301388888888,147.1048813095124L237.13604166666667,146.2742088932056L237.19755555555557,147.66935202468986L237.5666388888889,146.8316191493842L237.68966666666668,147.02555363532144L237.75118055555558,150.17194028589867L237.81269444444445,150.64645864900197L238.05875,150.87099925480035L238.1202638888889,150.66026630283443L238.18177777777777,150.4603411572042L238.30480555555556,150.5968426833667L238.48934722222222,149.44097661793933L238.612375,148.20880288970892L238.91994444444447,150.74294425900234L238.9814583333333,148.59022775802288L239.166,147.3437486142711L239.47356944444445,148.05245559518315L239.53508333333332,145.6740396565484L239.719625,146.35557711996356L240.02719444444446,148.93413298653198L240.15022222222223,146.79061961964743L240.3347638888889,147.81755161759838L240.39627777777778,145.77831602381224L240.45779166666668,148.9037975328359L240.6423333333333,147.2964514170404L241.01141666666666,147.33844719376063L241.25747222222222,147.34527593878445L241.50352777777778,147.4476369263383L241.62655555555557,146.79440431843116L241.934125,148.908753997385L241.9956388888889,148.2424613751766L242.11866666666668,146.2032617162345L242.30320833333332,147.7619973320173L242.6107777777778,148.3908817945961L243.22591666666668,148.1553570377257L243.28743055555557,146.05573038741508L243.5334861111111,145.13903301050996L243.6565138888889,144.3052933757945L243.96408333333332,145.6130127278235L244.0871111111111,144.65811282201207L244.2101388888889,144.34125708224533L244.33316666666667,143.5447975080142L244.51770833333333,142.39986758714494L244.82527777777779,141.22332447341427L244.88679166666668,143.5498976801118L244.94830555555555,143.92051344479802L245.00981944444445,142.83396204331925L245.0713333333333,143.6239154816831L245.1328472222222,140.4275684643486L245.3789027777778,139.42345725826615L245.50193055555553,142.95901438791867L245.62495833333332,140.269639904495L245.8095,140.53548103284592L245.99404166666667,144.7610400540337L246.05555555555554,148.0636262430373L246.24009722222223,149.62365462384363L246.91675,151.86262084246718L247.22431944444443,151.84519673109676L247.28583333333333,153.31417174768822L247.65491666666668,152.1528888918899L247.9624861111111,152.87743437158719L248.20854166666666,152.31695411126407L248.27005555555553,150.65449622583742L248.577625,150.98676583357067L248.76216666666664,150.26965063326008L249.13125,151.18631440110474L249.37730555555555,151.5579204899518L249.6233611111111,150.2541245187788L249.7463888888889,153.6508725860994L250.11547222222222,154.02873418207653L250.3000138888889,153.36975830480867L250.54606944444444,153.42845574429876L250.66909722222223,150.2044431174472L250.7306111111111,149.1962187650606L250.9151527777778,150.24505388515027L250.97666666666666,150.60864317284125L251.22272222222222,151.2685639611846L251.4072638888889,149.7125382275561L251.4687777777778,146.16728877134202L251.53029166666664,148.52904905740664L251.65331944444443,151.18723701157717L252.20694444444445,149.91780685614674L252.69905555555556,150.64077100295503L253.006625,149.61664896690058L253.0681388888889,150.2213274805737L253.12965277777775,149.7696139913197L253.19116666666665,148.95622082360956L253.37570833333334,149.38833091144784L253.6217638888889,149.35429538181438L253.92933333333335,150.32593973214037L254.0523611111111,152.2851301177419L254.60598611111112,151.90808354282834L254.79052777777775,149.79072968044557L255.52869444444445,151.33039336132214L255.71323611111112,153.3072590156031L255.83626388888888,157.1540079190512L255.95929166666667,156.1985854193079L256.14383333333336,156.96911243704008L256.2668611111111,155.7529566055956L256.3898888888889,156.3592151502623L256.5129166666667,154.03947952388842L256.5744305555555,154.90935117601825L256.6359444444444,157.6852452671496L257.3741111111111,156.6196303794365L257.74319444444444,155.66606295285112L258.29681944444445,156.57693183527877L258.35833333333335,156.15435364309843L258.78893055555557,156.67271524944243L259.0349861111111,158.32685707973442L259.0965,158.73836449961067L259.4040694444445,155.51634752857805L259.4655833333333,154.75005467002464L259.650125,154.5147135690741L260.1422361111111,155.60637424206092L260.32677777777775,155.40026997217745L260.38829166666665,157.3787769239498L260.6958611111111,157.8409145689817L260.94191666666666,159.41093392472337L261.12645833333335,157.84051153243107L261.18797222222224,158.4420331786902L261.311,157.24145276968665L261.3725138888889,157.40793556943527L261.55705555555556,156.5082536874711L261.61856944444446,154.66327139964696L261.68008333333336,156.95133255261777L262.1106805555556,155.82537540399193L262.23370833333337,155.6704562699983L262.3567361111111,156.52874962068734L263.09490277777775,155.35665931449614L263.27944444444444,154.2380265602248L263.34095833333333,155.649811089562L263.40247222222223,156.1676505449573L263.46398611111107,155.4985806967711L263.71004166666665,156.1908093944726L263.89458333333334,155.0499036702834L264.26366666666667,153.83394191225307L264.8172916666667,153.52412317728957L264.8788055555556,153.18345107159593L264.94031944444447,154.3870375485514L265.3094027777778,154.50513283796874L265.4324305555556,152.5854490303264" style="fill: none;" fill="none"></path></g></g></g></g><g opacity="0.2"><g><g><g><path stroke="rgb(255, 112, 67)" stroke-width="2px" d="M38.63072222222222,-0.8581213951110449L38.753750000000004,0.7428474426269727L39.12283333333333,8.085011959075947L39.18434722222222,4.860205173492451L39.61494444444444,8.100144386291523L39.73797222222222,12.858151912689229L39.799486111111115,8.009507179260273L39.984027777777776,17.762710571289084L40.414625,19.393472194671652L40.59916666666667,4.822229862213154L40.72219444444444,19.195072174072287L40.84522222222222,22.90116620063784L41.214305555555555,23.170979738235495L41.275819444444444,21.464936256408713L41.33733333333333,22.756057500839255L41.64490277777777,14.854399681091328L42.0755,29.579798698425314L42.137013888888895,22.46834468841555L42.19852777777778,23.39759898185732L42.44458333333333,22.36788582801821L42.50609722222222,26.951726198196432L42.56761111111111,17.210416316986105L42.99820833333333,36.455703496933005L43.18275,26.851306676864645L43.244263888888895,41.02435898780825L43.30577777777778,31.764677286148093L43.36729166666667,31.728970527648947L43.490319444444445,38.68456315994265L43.736375,36.1781270503998L43.859402777777774,38.99412226676943L43.98243055555555,42.922744274139426L44.29,43.83326005935671L44.35151388888889,45.75498652458193L44.536055555555556,36.5116174221039L44.843625,32.516695976257346L45.45876388888889,37.91692686080935L45.766333333333336,44.323464155197165L45.827847222222225,39.1243214607239L45.88936111111111,38.598751544952414L46.62752777777778,38.595224142074606L46.68904166666667,46.895111322402975L46.75055555555556,47.62656879425051L47.42720833333333,57.62505125999453L47.611749999999994,41.668772220611594L47.73477777777778,38.60542607307436L47.85780555555556,48.25782966613772L48.103861111111115,45.13775658607485L48.28840277777778,47.93292832374575L48.472944444444444,53.053720712661764L48.59597222222222,45.397014141082785L48.90354166666667,42.97165584564211L49.02656944444444,50.206162452697775L49.08808333333334,54.158361673355124L49.580194444444444,46.77297663688662L49.70322222222222,56.34006690979006L49.94927777777777,55.9549505710602L50.19533333333334,44.98516035079958L50.318361111111116,56.81353878974917L50.379875,55.39785695075991L50.564416666666666,51.684996604919455L51.487125,56.68067765235903L51.548638888888895,62.19567370414736L51.85620833333333,63.86513185501101L51.979236111111106,62.03827810287478L52.04075,54.85737752914431L52.40983333333333,61.917585849761984L52.53286111111111,60.42820882797243L52.77891666666667,56.04751539230349L53.024972222222225,63.22359037399294L53.148,64.24596023559572L53.209513888888885,51.60049629211428L53.271027777777775,60.06694507598879L53.33254166666667,58.08058452606203L54.00919444444445,60.74790430068972L54.501305555555554,59.304370403289816L54.74736111111111,72.05666613578796L54.87038888888889,59.164231538772604L55.177958333333336,66.20206904411316L55.48552777777778,65.27948927879335L55.608555555555554,67.88275194168091L55.916125,72.12986302375793L56.22369444444444,65.0580496788025L56.28520833333334,66.13836598396301L56.654291666666666,68.33643627166748L56.715805555555555,70.9050018787384L56.96186111111111,64.72163510322572L57.577,65.06991696357728L57.63851388888889,70.33686709403992L57.761541666666666,63.738827228546164L58.00759722222222,60.6222290992737L58.06911111111111,63.06910586357119L58.19213888888889,61.330607652664206L58.43819444444444,64.7009165287018L58.56122222222222,62.5523478984833L58.80727777777778,63.364411115646384L59.114847222222224,72.00851511955261L59.360902777777774,62.14735221862795L59.42241666666667,60.39672446250918L59.54544444444444,66.6023440361023L59.66847222222222,60.85915517807009L59.91452777777778,72.01925468444824L59.97604166666667,71.25712585449219L60.28361111111111,62.82504630088808L60.345125,65.85992407798769L60.71420833333333,62.62595129013064L60.83723611111111,65.79261493682863L61.14480555555556,70.12164306640625L61.39086111111111,68.72825336456299L62.06751388888888,70.75070095062256L62.12902777777778,67.82750678062439L62.19054166666666,71.2864990234375L62.25205555555556,71.98723268508911L62.31356944444445,76.02655482292175L62.37508333333333,67.10659217834473L62.559625000000004,77.89369177818298L62.621138888888886,70.11776161193848L62.682652777777776,72.60547232627869L63.543847222222226,59.76433587074282L63.60536111111111,68.75176501274109L63.72838888888889,69.15585589408875L63.78990277777778,79.95150518417358L63.851416666666665,66.63664770126343L63.974444444444444,72.9973680973053L64.09747222222222,72.40298104286194L64.2205,72.22350311279297L64.34352777777778,69.69402742385864L64.58958333333334,74.69210815429688L64.71261111111112,75.13284993171692L64.95866666666666,75.40494513511658L65.32775,63.05908751487734L65.45077777777779,68.19043588638306L65.69683333333333,69.13255405426025L66.00440277777777,68.8750536441803L66.68105555555556,73.54374837875366L66.74256944444444,70.03309082984924L66.92711111111112,73.73030734062195L67.0501388888889,73.88534259796143L67.11165277777778,80.48886370658875L67.29619444444444,78.97441458702087L67.41922222222222,80.88647675514221L67.84981944444445,74.84629106521606L68.15738888888889,76.00259733200073L68.46495833333333,71.08091306686401L68.52647222222222,63.63468360900881L68.6495,74.408447265625L69.01858333333332,80.00488829612732L69.08009722222222,56.721957445144675L69.2646388888889,66.48204517364502L69.38766666666666,69.06232070922852L69.44918055555556,72.19628047943115L69.69523611111111,70.51288318634033L69.94129166666666,68.99295282363892L70.31037500000001,75.65017175674438L70.37188888888889,80.11724066734314L70.67945833333334,78.86595678329468L70.80248611111111,81.02295708656311L71.04854166666667,81.53355193138123L71.23308333333334,73.57192826271057L71.3561111111111,80.155517578125L71.78670833333334,81.36920642852783L71.97125,82.05979061126709L72.27881944444445,70.53396892547607L72.34033333333332,75.29438924789429L72.58638888888889,76.68783140182495L72.83244444444445,74.41648554801941L73.32455555555556,84.01499462127686L73.44758333333333,88.23021483421326L73.5706111111111,75.09583187103271L73.632125,79.95913696289062L73.93969444444446,85.40713858604431L74.43180555555556,81.95676159858704L74.73937500000001,79.47381091117859L74.86240277777777,82.3878915309906L75.04694444444445,78.07908368110657L75.10845833333333,79.31186509132385L75.23148611111111,82.6294333934784L75.35451388888889,84.54675388336182L75.41602777777777,75.1135082244873L75.53905555555556,70.60902786254883L75.60056944444445,79.67961978912354L75.72359722222222,76.54642057418823L75.7851111111111,82.91381549835205L75.846625,74.90676832199097L76.15419444444444,86.63349461555481L76.52327777777778,80.01320195198059L77.75355555555556,83.8603003025055L77.81506944444443,84.68611907958984L78.24566666666666,76.09896492958069L78.43020833333333,81.37772989273071L78.49172222222222,72.40135502815247L78.61474999999999,81.06841993331909L78.73777777777778,83.01672649383545L78.86080555555556,93.79226040840149L79.22988888888888,65.27124118804933L80.21411111111112,83.9823169708252L80.27562499999999,81.13140177726746L80.33713888888889,74.1678626537323L80.39865277777778,80.02702307701111L80.58319444444444,88.33565664291382L81.07530555555554,78.21203660964966L81.13681944444444,90.30957293510437L81.69044444444444,73.90115690231323L81.9365,82.75270891189575L81.99801388888889,85.69832634925842L82.12104166666667,82.16674041748047L82.18255555555555,83.77027940750122L82.36709722222223,80.57904195785522L82.42861111111111,73.24104738235474L82.61315277777778,83.67517066001892L82.73618055555555,83.7677354812622L83.10526388888889,79.78173089027405L83.47434722222224,78.34020328521729L83.6588888888889,85.97173285484314L83.78191666666666,75.80848526954651L84.02797222222223,77.30856251716614L84.27402777777779,82.83251476287842L84.33554166666666,76.69013929367065L85.13522222222223,78.9918155670166L85.25825,74.82609701156616L85.62733333333334,87.69053530693054L85.811875,78.33405327796936L85.93490277777778,85.82498502731323L86.18095833333334,88.02036714553833L86.24247222222222,93.26140594482422L86.61155555555555,82.37476539611816L86.73458333333333,91.75427389144897L86.79609722222222,80.05979251861572L87.22669444444445,83.36904716491699L87.41123611111111,85.8053810596466L87.84183333333334,90.68368744850159L87.9648611111111,73.40640258789062L88.026375,92.22724747657776L88.0878888888889,82.50867557525635L88.70302777777778,80.94253492355347L89.13362500000001,76.55976963043213L89.31816666666667,87.19457459449768L89.50270833333333,90.95434021949768L89.99481944444445,83.21297597885132L90.3023888888889,89.85595417022705L90.91752777777778,85.26108574867249L90.97904166666666,94.046639919281L91.16358333333332,88.02019667625427L91.40963888888888,86.20266628265381L91.65569444444445,90.6916995048523L91.77872222222221,87.50228476524353L91.90175,87.06990909576416L92.02477777777777,85.9216148853302L92.20931944444445,94.568039894104L92.39386111111111,95.8479495048523L92.455375,91.46660041809082L92.51688888888889,84.14878678321838L92.63991666666666,87.36497831344604L93.07051388888888,90.64742994308472L93.19354166666666,92.68085312843323L93.62413888888888,85.9821183681488L93.87019444444444,83.77047610282898L93.99322222222222,82.51565170288086L94.42381944444443,92.73169231414795L94.48533333333333,91.17744517326355L94.54684722222223,89.33409523963928L94.91593055555556,89.68670439720154L95.10047222222222,89.15676784515381L95.71561111111112,96.80720639228821L95.83863888888888,83.10005974769592L95.96166666666667,93.12179160118103L96.08469444444444,94.52240657806396L96.57680555555557,96.205082654953L96.63831944444443,89.08012223243713L96.69983333333333,90.41317892074585L96.76134722222223,87.73930263519287L97.00740277777778,88.44293427467346L97.19194444444445,96.83852028846741L97.56102777777778,83.75051808357239L97.62254166666668,83.87607526779175L98.29919444444444,86.64892864227295L98.54525,88.27124547958374L98.66827777777777,85.39049816131592L98.85281944444444,97.66123127937317L98.97584722222223,94.45029807090759L99.09887499999999,94.51245379447937L99.28341666666667,88.55835509300232L99.71401388888889,94.9415774345398L99.77552777777778,95.27630043029785L99.96006944444444,90.27722311019897L100.02158333333334,90.32154512405396L100.1446111111111,95.25693249702454L100.206125,84.84337043762207L100.39066666666668,89.57460117340088L100.51369444444444,84.06582069396973L100.8212638888889,102.67683100700378L101.25186111111111,96.61630702018738L101.55943055555555,95.6478316783905L101.62094444444445,93.19793891906738L102.23608333333334,94.38447070121765L102.3591111111111,91.8442816734314L102.54365277777778,87.77418327331543L102.97425,93.62221074104309L103.09727777777779,84.8116238117218L103.15879166666666,96.95837330818176L103.22030555555556,90.71109366416931L103.46636111111111,91.46463346481323L103.58938888888889,93.53150796890259L103.89695833333334,92.07754921913147L104.14301388888889,100.94016861915588L104.20452777777778,85.55261445045471L104.38906944444444,87.39071917533875L104.94269444444444,92.70686936378479L105.43480555555556,94.59970784187317L105.68086111111111,92.97286701202393L105.98843055555555,90.62440347671509L106.11145833333335,98.6523790359497L106.35751388888889,87.26171326637268L107.28022222222222,96.62938070297241L107.40325,92.60031294822693L107.58779166666666,89.9856288433075L107.64930555555556,94.76674151420593L107.71081944444445,86.24904704093933L107.77233333333332,89.75697708129883L107.89536111111111,100.67258429527283L108.07990277777778,87.76804637908936L108.26444444444445,93.77130579948425L108.32595833333333,95.16754102706909L108.69504166666667,96.89099860191345L108.94109722222223,84.1400797367096L109.24866666666667,92.87563395500183L109.37169444444446,100.34905982017517L109.61775,93.28995299339294L109.80229166666666,94.67020344734192L110.10986111111112,98.22899889945984L110.29440277777778,96.70158100128174L110.60197222222222,94.97160625457764L110.66348611111111,95.80707621574402L110.84802777777777,96.27928924560547L111.09408333333333,90.74529242515564L111.34013888888889,95.30900430679321L111.64770833333333,91.4561755657196L111.95527777777778,89.1231198310852L112.07830555555556,87.99197745323181L112.26284722222222,97.64910173416138L112.32436111111112,93.33170485496521L112.87798611111111,90.28810691833496L113.49312499999999,89.08282351493835L113.67766666666667,93.34232640266418L114.04674999999999,98.03520154953003L114.41583333333334,96.56717252731323L114.66188888888888,93.94332242012024L114.90794444444444,103.68983817100525L115.33854166666667,99.26065278053284L115.40005555555555,84.14558720588684L115.64611111111113,98.04887843132019L116.01519444444445,94.74334788322449L116.26124999999999,101.30735945701599L116.44579166666668,91.14101719856262L116.69184722222222,92.52851915359497L117.922125,84.40157961845398L118.16818055555555,94.69195795059204L118.78331944444444,103.55600666999817L119.09088888888888,102.15414595603943L119.21391666666666,100.40720295906067L119.27543055555556,103.83838248252869L119.33694444444444,103.73354387283325L119.39845833333334,108.69214129447937L119.89056944444445,102.9580135345459L120.38268055555555,101.28034663200378L120.44419444444445,95.70391607284546L120.56722222222221,103.90961241722107L120.62873611111111,94.85282850265503L121.36690277777778,100.67274165153503L121.42841666666666,102.07646441459656L121.55144444444444,99.50580072402954L122.22809722222222,101.0257179737091L122.41263888888889,105.84602546691895L122.65869444444445,97.92026591300964L122.90475,102.38851499557495L123.15080555555555,98.11730217933655L123.58140277777777,91.61897373199463L123.64291666666666,100.27706933021545L123.70443055555556,108.13976836204529L123.82745833333334,101.26205396652222L124.012,98.03754878044128L124.75016666666666,101.09702658653259L125.11925000000001,99.74058938026428L125.30379166666667,102.94193696975708L125.36530555555555,101.77933645248413L125.54984722222223,94.57446527481079L125.98044444444444,106.05839085578918L126.16498611111112,103.17332935333252L126.2265,100.55076432228088L126.84163888888888,96.10458445549011L127.02618055555556,107.13115406036377L127.08769444444445,92.51097393035889L127.21072222222222,95.32148790359497L127.45677777777777,103.09050750732422L127.51829166666667,96.35285329818726L127.70283333333333,108.64257407188416L127.94888888888889,97.55138349533081L128.25645833333334,90.21026802062988L128.87159722222222,102.89503169059753L128.93311111111112,106.18131232261658L129.24068055555557,106.0364921092987L129.36370833333334,92.82715511322021L129.85581944444445,107.85188508033752L130.84004166666668,99.25618124008179L131.33215277777776,104.89857029914856L131.45518055555556,104.39941000938416L131.63972222222222,102.08475184440613L132.00880555555554,107.4854416847229L132.07031944444444,103.91320538520813L132.50091666666668,100.9180076122284L132.99302777777777,103.95932388305664L133.23908333333333,109.35913515090942L133.48513888888888,102.99904417991638L133.73119444444444,86.87685918807983L133.9157361111111,106.28343653678894L134.0387638888889,98.30830645561218L134.40784722222222,103.14184498786926L134.4693611111111,107.49893498420715L134.530875,102.55296540260315L134.59238888888888,104.02026009559631L134.96147222222223,106.14752006530762L135.0229861111111,107.48789381980896L135.45358333333334,104.64925241470337L135.5766111111111,100.92444610595703L135.7611527777778,96.15706276893616L135.88418055555556,107.91250658035278L135.94569444444446,103.86422824859619L136.00720833333332,101.81207966804504L136.43780555555554,96.65281367301941L136.6838611111111,98.40682458877563L136.745375,96.34908986091614L136.8684027777778,109.714524269104L137.17597222222224,102.96203923225403L137.66808333333333,100.77376437187195L137.72959722222222,107.35134792327881L137.97565277777778,105.14202666282654L138.09868055555555,97.56833863258362L138.40625,108.98974132537842L138.5907916666667,103.31616950035095L138.65230555555556,106.45945262908936L139.32895833333333,113.0924780368805L139.9440972222222,104.10444569587708L140.067125,103.35170578956604L140.25166666666667,108.9277822971344L140.49772222222222,100.69853496551514L140.55923611111112,108.42523884773254L140.62075000000002,106.5442545413971L140.80529166666668,108.2943708896637L140.98983333333334,99.20462083816528L141.2358888888889,107.82484602928162L141.48194444444442,106.8275351524353L142.6507083333333,94.2087824344635L142.8967638888889,108.04511857032776L143.14281944444443,106.96490716934204L143.32736111111112,102.60696482658386L143.4503888888889,103.51114702224731L143.69644444444444,99.1983528137207L143.81947222222223,108.2945806980133L144.3730972222222,111.28614616394043L144.6191527777778,113.30733489990234L145.17277777777778,102.12860178947449L145.48034722222224,107.96529960632324L145.5418611111111,103.58051490783691L145.603375,106.61090803146362L146.03397222222222,112.25652289390564L146.40305555555554,101.23430681228638L146.58759722222223,108.21234893798828L146.7721388888889,107.3231680393219L146.89516666666665,111.46828603744507L147.3257638888889,102.40852546691895L147.57181944444443,112.67638874053955L147.75636111111112,94.8555953502655L148.12544444444444,115.72881174087524L148.18695833333334,114.0503842830658L148.24847222222223,114.41323471069336L148.4330138888889,115.80518198013306L148.74058333333332,110.93227815628052L149.10966666666667,111.63605403900146L149.17118055555554,108.47590756416321L149.78631944444444,105.07785153388977L149.84783333333334,116.69958186149597L150.0938888888889,105.08928608894348L150.15540277777777,107.11141896247864L150.40145833333332,120.64083170890808L150.52448611111112,103.70133829116821L150.89356944444444,111.32624578475952L151.07811111111113,115.64932060241699L151.32416666666666,114.12465643882751L151.38568055555555,112.44292449951172L151.50870833333335,110.81298899650574L151.5702222222222,102.131014585495L151.69325,106.788156747818L152.36990277777775,112.75327038764954L152.49293055555555,107.50660610198975L152.98504166666666,112.5218517780304L153.04655555555556,112.33552885055542L153.23109722222222,106.37090039253235L155.07651388888888,110.25202703475952L155.38408333333334,106.00924324989319L155.69165277777776,115.53265404701233L155.93770833333335,111.1208827495575L155.99922222222224,109.76237368583679L156.42981944444443,116.53393816947937L156.675875,109.76319980621338L157.10647222222224,104.4115002155304L157.16798611111113,104.6330840587616L157.22949999999997,106.63963866233826L157.90615277777778,112.00656247138977L157.96766666666667,114.0715880393982L158.09069444444444,115.97027492523193L158.33675,111.822678565979L158.64431944444445,114.82757997512817L159.13643055555556,108.4365553855896L159.25945833333333,112.31107306480408L159.75156944444444,117.98708391189575L159.81308333333334,120.62618446350098L159.9361111111111,111.5361590385437L160.12065277777776,109.3350203037262L160.24368055555556,109.04696655273438L160.48973611111109,109.00247406959534L160.55124999999998,111.46620106697083L160.79730555555557,120.80656719207764L160.85881944444446,117.01577615737915L161.104875,122.13280510902405L161.1663888888889,111.5887291431427L161.35093055555555,112.44073462486267L161.41244444444445,116.53204989433289L161.5969861111111,108.72159314155579L162.1506111111111,116.35603380203247L162.33515277777778,112.0641679763794L162.95029166666666,115.28904032707214L163.56543055555557,114.38981485366821L163.7499722222222,114.92288541793823L164.18056944444444,111.02839660644531L164.61116666666666,110.6567211151123L165.28781944444447,116.79154348373413L165.4108472222222,115.35962772369385L165.71841666666668,109.00887322425842L166.0259861111111,112.39284586906433L166.14901388888887,119.20521807670593L166.27204166666667,106.05849575996399L166.641125,106.68799948692322L166.76415277777778,115.89299988746643L166.94869444444447,107.53833961486816L167.01020833333334,115.53058218955994L167.37929166666666,115.47917914390564L167.62534722222222,109.67093658447266L168.302,116.86337661743164L168.48654166666668,118.14062428474426L168.7941111111111,115.56590867042542L169.59379166666668,112.17675638198853L170.0243888888889,123.8595278263092L170.20893055555555,114.29361772537231L171.070125,116.48024034500122L171.7467777777778,115.07396054267883L172.23888888888888,117.73545813560486L172.54645833333333,124.16584801673889L172.6079722222222,127.18011212348938L172.91554166666668,121.06151056289673L173.2231111111111,116.76666808128357L173.4076527777778,118.93305730819702L173.71522222222222,117.55216431617737L174.20733333333334,109.58849501609802L174.391875,118.63115620613098L174.69944444444442,126.48559403419495L174.82247222222222,118.94555401802063L174.8839861111111,115.09533476829529L174.9455,126.24782872200012L175.06852777777777,120.03486585617065L175.4376111111111,119.45405077934265L175.74518055555555,122.25984406471252L175.8682083333333,117.05038142204285L176.72940277777778,117.25794744491577L177.03697222222223,115.45453977584839L177.40605555555555,115.78265380859375L177.713625,122.57196021080017L177.8366527777778,117.72719693183899L177.95968055555554,129.26711511611938L178.02119444444443,122.94895958900452L178.20573611111112,122.26687264442444L178.26725000000002,122.89585185050964L180.11266666666666,124.79714822769165L180.29720833333332,121.6303927898407L180.5432638888889,121.2668342590332L180.6047777777778,121.53849673271179L180.78931944444443,124.960444688797L180.91234722222222,117.59613227844238L180.97386111111112,115.05583834648132L181.7120277777778,116.60704326629639L182.2041388888889,127.70972084999084L182.32716666666664,119.7671766281128L182.38868055555554,116.29369449615479L182.63473611111112,119.17326164245605L182.88079166666665,121.28399920463562L183.12684722222224,121.18534994125366L183.55744444444443,119.51136779785156L183.61895833333332,127.9446930885315L183.8650138888889,111.53619837760925L184.11106944444444,118.6439414024353L184.4186388888889,117.98901152610779L184.54166666666666,118.04458451271057L184.72620833333335,114.6480495929718L184.8492361111111,121.36552286148071L184.91075,118.96228623390198L185.03377777777777,119.3724353313446L185.34134722222223,116.9912416934967L185.58740277777775,119.19596028327942L185.64891666666665,124.52734780311584L185.71043055555555,117.4106616973877L185.83345833333334,123.40703678131104L185.95648611111113,119.08543062210083L186.26405555555556,120.04955244064331L186.38708333333332,113.72022461891174L186.87919444444444,121.94046330451965L187.18676388888886,123.60798072814941L188.54006944444444,127.67945599555969L188.60158333333334,128.55098676681519L188.72461111111113,133.76793038845062L189.15520833333335,131.3675458431244L189.2782361111111,124.85474061965942L189.33975,127.63312768936157L189.64731944444443,126.56655383110046L189.70883333333333,123.09343886375427L189.77034722222223,124.82822608947754L189.9548888888889,124.86273956298828L190.01640277777776,119.5680422782898L190.20094444444445,122.49594402313232L190.63154166666666,122.36402702331543L190.75456944444446,124.87623286247253L190.87759722222222,123.20381116867065L191.06213888888888,121.86137866973877L191.73879166666666,123.78082346916199L191.80030555555555,123.04514360427856L191.86181944444445,125.10506820678711L192.35393055555556,129.9475498199463L192.41544444444446,123.04954957962036L192.7230138888889,127.72662353515625L192.78452777777778,130.01005959510803L192.84604166666665,128.16120219230652L192.90755555555555,118.28676891326904L193.03058333333334,123.68206930160522L193.09209722222224,122.93011617660522L193.15361111111113,118.10982179641724L193.33815277777776,122.6038510799408L194.01480555555557,125.56711864471436L194.3838888888889,123.25752210617065L194.50691666666665,126.75999712944031L194.99902777777777,125.83339166641235L195.06054166666667,131.80159997940063L195.12205555555556,121.09172296524048L195.24508333333335,126.398353099823L195.67568055555554,125.39002728462219L195.86022222222223,122.41949510574341L195.98325,127.04226803779602L196.16779166666666,120.7574851512909L196.29081944444445,126.21205639839172L196.41384722222224,123.44773960113525L196.96747222222223,125.63461136817932L197.21352777777778,128.0901951789856L197.33655555555555,132.99441289901733L197.45958333333334,137.19362211227417L197.5826111111111,131.60280656814575L197.644125,130.15237522125244L197.89018055555556,129.15604782104492L197.95169444444446,127.8653724193573L198.01320833333335,127.37522077560425L198.32077777777778,128.89071893692017L198.6283472222222,130.60122084617615L198.6898611111111,134.41916239261627L198.93591666666666,130.78093481063843L199.2434861111111,129.41701006889343L199.305,132.45821487903595L199.36651388888887,132.68961381912231L199.42802777777777,123.49848699569702L199.55105555555556,134.00226664543152L199.61256944444446,134.43535041809082L200.10468055555557,131.948832988739L200.16619444444444,133.43971145153046L200.22770833333334,126.31262016296387L200.53527777777776,129.32937574386597L200.59679166666666,130.90607237815857L200.84284722222222,123.24590396881104L201.02738888888888,122.06914138793945L201.21193055555557,127.56609392166138L201.33495833333336,128.1471974849701L201.4579861111111,130.71346831321716L201.6425277777778,123.83271169662476L201.70404166666668,129.01545000076294L202.0116111111111,128.44036531448364L202.073125,130.324955701828L202.81129166666668,131.37479734420776L202.93431944444447,128.1318027973175L203.734,121.19174909591675L203.79551388888888,127.99671244621277L204.47216666666668,136.49949741363525L204.53368055555558,136.17396664619446L205.08730555555556,129.15582489967346L205.21033333333332,124.03437685966492L205.33336111111112,127.44018268585205L205.51790277777778,122.64380645751953L205.70244444444444,118.33594274520874L205.8869861111111,126.37193036079407L206.13304166666668,123.9054102897644L206.19455555555558,125.48361492156982L206.502125,128.3198435306549L206.62515277777777,127.7367992401123L206.74818055555556,127.38252472877502L206.80969444444443,133.04851722717285L207.05575,133.0377186536789L207.85543055555556,135.4988820552826L207.97845833333332,136.98595774173737L208.03997222222222,139.7572637796402L208.163,133.10184133052826L208.47056944444444,132.1594740152359L208.59359722222223,129.67203211784363L208.716625,137.111226439476L208.8396527777778,133.88989460468292L209.3317638888889,137.68452775478363L209.82387500000002,137.74545741081238L210.00841666666668,136.64740574359894L210.06993055555554,133.61852717399597L210.2544722222222,134.93868720531464L210.3775,127.35093545913696L210.4390138888889,133.41526877880096L210.62355555555555,130.06888461112976L210.9926388888889,141.45659339427948L211.23869444444443,135.43978822231293L211.30020833333333,131.9203646183014L212.1614027777778,136.62770998477936L212.34594444444443,133.66733384132385L212.53048611111112,134.3269385099411L212.71502777777778,137.5606359243393L212.96108333333333,128.57633423805237L213.145625,129.90220499038696L213.2071388888889,130.21331143379211L213.2686527777778,129.35675573349L213.6377361111111,132.96098124980927L213.94530555555554,132.76131582260132L214.00681944444443,132.13071060180664L214.31438888888889,132.1928073167801L214.43741666666665,133.88426911830902L214.8680138888889,134.5734305381775L215.05255555555556,137.65807223320007L215.17558333333332,127.83660244941711L215.23709722222222,134.00477123260498L215.360125,132.19230246543884L215.4216388888889,127.57615160942078L215.54466666666664,128.35098695755005L215.91375,129.33408331871033L216.4058611111111,137.56010484695435L216.467375,126.60850238800049L216.77494444444443,136.9870264530182L217.0825138888889,141.22670245170593L217.39008333333334,136.73359763622284L218.1897638888889,141.16145861148834L218.25127777777777,135.82948756217957L218.31279166666667,139.26700723171234L218.92793055555555,140.8533878326416L219.35852777777777,139.75225460529327L219.54306944444446,141.93640542030334L219.8506388888889,139.1642404794693L220.4042638888889,137.62549948692322L220.46577777777776,129.19696044921875L220.52729166666666,138.1760824918747L220.8348611111111,138.67229235172272L221.20394444444443,133.13730549812317L221.38848611111112,135.1546652317047L221.63454166666665,133.8043452501297L221.69605555555555,134.21924126148224L221.75756944444444,132.44216454029083L221.88059722222224,134.7456372976303L222.12665277777776,138.43226504325867L222.31119444444445,139.2269207239151L222.37270833333335,139.37124919891357L222.61876388888888,132.24754762649536L222.68027777777777,134.3556625843048L222.74179166666667,136.71013188362122L223.04936111111112,131.20523285865784L223.1723888888889,130.5085117816925L223.78752777777777,135.57157409191132L223.84904166666666,133.75175547599792L224.09509722222222,142.4926598072052L224.21812500000001,136.52735602855682L224.52569444444444,134.5692343711853L224.64872222222223,134.80422627925873L224.83326388888887,132.73877453804016L225.57143055555557,133.3906228542328L225.75597222222223,134.68012464046478L225.9405138888889,142.98936140537262L226.24808333333334,132.31966924667358L226.43262499999997,146.03088748455048L226.80170833333335,138.27161741256714L226.98624999999998,147.76692700386047L227.10927777777778,141.16952967643738L227.41684722222223,139.43597507476807L227.539875,142.88602423667908L227.78593055555555,142.1274162530899L227.84744444444445,142.8481800556183L228.33955555555556,148.4987188577652L228.58561111111112,146.87594306468964L228.647125,144.81458258628845L228.83166666666668,140.47250044345856L228.95469444444444,139.3396074771881L229.38529166666666,147.4074466228485L229.63134722222225,140.37893903255463L229.87740277777777,144.25711524486542L230.12345833333333,147.0705075263977L230.2464861111111,135.84889483451843L230.61556944444445,146.12951707839966L231.3537361111111,144.55369901657104L231.47676388888888,139.51474499702454L231.59979166666668,144.55870819091797L231.78433333333334,136.6259593963623L231.968875,149.22578346729279L232.15341666666666,143.70470297336578L232.21493055555555,142.47190189361572L232.52249999999998,141.55529510974884L233.0146111111111,140.937429189682L233.38369444444444,143.05430364608765L233.5682361111111,140.71793687343597L233.62975,138.51928305625916L234.1218611111111,139.5376534461975L234.6139722222222,135.37563931941986L235.1675972222222,141.7868448495865L235.41365277777777,140.0115646123886L235.84425,136.092738032341L236.21333333333334,145.93131375312805L236.3363611111111,143.49138689041138L236.5209027777778,155.5088747739792L237.01301388888888,146.46709215641022L237.13604166666667,145.02820026874542L237.19755555555557,149.7620667219162L237.5666388888889,145.57501983642578L237.68966666666668,147.3164553642273L237.75118055555558,154.89152026176453L237.81269444444445,151.35823619365692L238.05875,151.20781016349792L238.1202638888889,150.34416687488556L238.18177777777777,150.16045343875885L238.30480555555556,150.80159497261047L238.48934722222222,147.70717751979828L238.612375,146.36054229736328L238.91994444444447,154.5441563129425L238.9814583333333,145.36115300655365L239.166,145.4740298986435L239.47356944444445,149.1155160665512L239.53508333333332,142.1064157485962L239.719625,147.37788331508636L240.02719444444446,152.80196678638458L240.15022222222223,143.57534956932068L240.3347638888889,149.35794961452484L240.39627777777778,142.71946263313293L240.45779166666668,153.59201979637146L240.6423333333333,144.88543224334717L241.01141666666666,147.40144085884094L241.25747222222222,147.3555190563202L241.50352777777778,147.60117840766907L241.62655555555557,145.81455540657043L241.934125,152.08027851581573L241.9956388888889,147.243022441864L242.11866666666668,143.14446222782135L242.30320833333332,150.10010075569153L242.6107777777778,149.33420848846436L243.22591666666668,147.80206990242004L243.28743055555557,142.90629041194916L243.5334861111111,143.76398694515228L243.6565138888889,143.0546839237213L243.96408333333332,147.574591755867L244.0871111111111,143.22576296329498L244.2101388888889,143.86597347259521L244.33316666666667,142.35010814666748L244.51770833333333,140.68247270584106L244.82527777777779,139.4585098028183L244.88679166666668,147.03975749015808L244.94830555555555,144.4764370918274L245.00981944444445,141.20413494110107L245.0713333333333,144.80884563922882L245.1328472222222,135.63304793834686L245.3789027777778,137.91729044914246L245.50193055555553,148.26235008239746L245.62495833333332,136.23557817935944L245.8095,140.93424272537231L245.99404166666667,151.09937858581543L246.05555555555554,153.01750552654266L246.24009722222223,151.9636971950531L246.91675,155.22107017040253L247.22431944444443,151.81906056404114L247.28583333333333,155.51763427257538L247.65491666666668,150.41096460819244L247.9624861111111,153.96425259113312L248.20854166666666,151.47623372077942L248.27005555555553,148.16080939769745L248.577625,151.4851702451706L248.76216666666664,149.1939778327942L249.13125,152.5613100528717L249.37730555555555,152.11532962322235L249.6233611111111,148.29843056201935L249.7463888888889,158.74599468708038L250.11547222222222,154.59552657604218L250.3000138888889,152.38129448890686L250.54606944444444,153.51650190353394L250.66909722222223,145.3684241771698L250.7306111111111,147.6838822364807L250.9151527777778,151.81830656528473L250.97666666666666,151.15402710437775L251.22272222222222,152.25844514369965L251.4072638888889,147.37849962711334L251.4687777777778,140.84941458702087L251.53029166666664,152.0716894865036L251.65331944444443,155.17451894283295L252.20694444444445,148.0136616230011L252.69905555555556,151.72521722316742L253.006625,148.0804659128189L253.0681388888889,151.12834525108337L253.12965277777775,149.09204375743866L253.19116666666665,147.73613107204437L253.37570833333334,150.03649604320526L253.6217638888889,149.3032420873642L253.92933333333335,151.7834062576294L254.0523611111111,155.2239156961441L254.60598611111112,151.34251368045807L254.79052777777775,146.61469888687134L255.52869444444445,153.63988888263702L255.71323611111112,156.27255749702454L255.83626388888888,162.92413127422333L255.95929166666667,154.765451669693L256.14383333333336,158.1249029636383L256.2668611111111,153.92872285842896L256.3898888888889,157.26860296726227L256.5129166666667,150.5598760843277L256.5744305555555,156.21415865421295L256.6359444444444,161.84908640384674L257.3741111111111,155.02120804786682L257.74319444444444,154.23571181297302L258.29681944444445,157.9432351589203L258.35833333333335,155.52048635482788L258.78893055555557,157.45025765895844L259.0349861111111,160.80806982517242L259.0965,159.35562562942505L259.4040694444445,150.6833220720291L259.4655833333333,153.60061538219452L259.650125,154.16170191764832L260.1422361111111,157.24386525154114L260.32677777777775,155.0911135673523L260.38829166666665,160.34653735160828L260.6958611111111,158.53412103652954L260.94191666666666,161.76596295833588L261.12645833333335,155.48487794399261L261.18797222222224,159.34431564807892L261.311,155.44058215618134L261.3725138888889,157.65765976905823L261.55705555555556,155.15873086452484L261.61856944444446,151.89579796791077L261.68008333333336,160.38342428207397L262.1106805555556,154.13643968105316L262.23370833333337,155.43807756900787L262.3567361111111,157.8161896467209L263.09490277777775,153.59852385520935L263.27944444444444,152.56007742881775L263.34095833333333,157.7674878835678L263.40247222222223,156.94440972805023L263.46398611111107,154.49497592449188L263.71004166666665,157.22915244102478L263.89458333333334,153.33854508399963L264.26366666666667,152.00999927520752L264.8172916666667,153.05939507484436L264.8788055555556,152.67244291305542L264.94031944444447,156.19241726398468L265.3094027777778,154.68227577209473L265.4324305555556,149.70592331886292" style="fill: none;" fill="none"></path></g></g></g></g></g></g><g transform="translate(53, 176)" clip-path="url(#clip_1)"><clipPath id="clip_1"><rect width="276" height="24"></rect></clipPath><g><g><line x1="0" y1="0" x2="0" y2="5" style="visibility: inherit;" fill="rgb(0, 0, 0)" stroke="rgb(204, 204, 204)" stroke-width="1px"></line><line x1="30.756944444444443" y1="0" x2="30.756944444444443" y2="5" style="visibility: inherit;" fill="rgb(0, 0, 0)" stroke="rgb(204, 204, 204)" stroke-width="1px"></line><line x1="61.513888888888886" y1="0" x2="61.513888888888886" y2="5" style="visibility: inherit;" fill="rgb(0, 0, 0)" stroke="rgb(204, 204, 204)" stroke-width="1px"></line><line x1="92.27083333333333" y1="0" x2="92.27083333333333" y2="5" style="visibility: inherit;" fill="rgb(0, 0, 0)" stroke="rgb(204, 204, 204)" stroke-width="1px"></line><line x1="123.02777777777777" y1="0" x2="123.02777777777777" y2="5" style="visibility: inherit;" fill="rgb(0, 0, 0)" stroke="rgb(204, 204, 204)" stroke-width="1px"></line><line x1="153.78472222222223" y1="0" x2="153.78472222222223" y2="5" style="visibility: inherit;" fill="rgb(0, 0, 0)" stroke="rgb(204, 204, 204)" stroke-width="1px"></line><line x1="184.54166666666666" y1="0" x2="184.54166666666666" y2="5" style="visibility: inherit;" fill="rgb(0, 0, 0)" stroke="rgb(204, 204, 204)" stroke-width="1px"></line><line x1="215.29861111111111" y1="0" x2="215.29861111111111" y2="5" style="visibility: inherit;" fill="rgb(0, 0, 0)" stroke="rgb(204, 204, 204)" stroke-width="1px"></line><line x1="246.05555555555554" y1="0" x2="246.05555555555554" y2="5" style="visibility: inherit;" fill="rgb(0, 0, 0)" stroke="rgb(204, 204, 204)" stroke-width="1px"></line><line x1="276.8125" y1="0" x2="276.8125" y2="5" style="visibility: inherit;" fill="rgb(0, 0, 0)" stroke="rgb(204, 204, 204)" stroke-width="1px"></line></g><g transform="translate(0, 8)"><text x="0" y="0" dx="0em" dy="0.95em" style="text-anchor: middle; visibility: hidden; font-family: Roboto, sans-serif; font-size: 12px; font-weight: 200;" fill="rgb(33, 33, 33)" stroke="none" stroke-width="1px">-500</text><text x="30.756944444444443" y="0" dx="0em" dy="0.95em" style="text-anchor: middle; visibility: inherit; font-family: Roboto, sans-serif; font-size: 12px; font-weight: 200;" fill="rgb(33, 33, 33)" stroke="none" stroke-width="1px">0</text><text x="61.513888888888886" y="0" dx="0em" dy="0.95em" style="text-anchor: middle; visibility: inherit; font-family: Roboto, sans-serif; font-size: 12px; font-weight: 200;" fill="rgb(33, 33, 33)" stroke="none" stroke-width="1px">500</text><text x="92.27083333333333" y="0" dx="0em" dy="0.95em" style="text-anchor: middle; visibility: inherit; font-family: Roboto, sans-serif; font-size: 12px; font-weight: 200;" fill="rgb(33, 33, 33)" stroke="none" stroke-width="1px">1k</text><text x="123.02777777777777" y="0" dx="0em" dy="0.95em" style="text-anchor: middle; visibility: inherit; font-family: Roboto, sans-serif; font-size: 12px; font-weight: 200;" fill="rgb(33, 33, 33)" stroke="none" stroke-width="1px">1.5k</text><text x="153.78472222222223" y="0" dx="0em" dy="0.95em" style="text-anchor: middle; visibility: inherit; font-family: Roboto, sans-serif; font-size: 12px; font-weight: 200;" fill="rgb(33, 33, 33)" stroke="none" stroke-width="1px">2k</text><text x="184.54166666666666" y="0" dx="0em" dy="0.95em" style="text-anchor: middle; visibility: inherit; font-family: Roboto, sans-serif; font-size: 12px; font-weight: 200;" fill="rgb(33, 33, 33)" stroke="none" stroke-width="1px">2.5k</text><text x="215.29861111111111" y="0" dx="0em" dy="0.95em" style="text-anchor: middle; visibility: inherit; font-family: Roboto, sans-serif; font-size: 12px; font-weight: 200;" fill="rgb(33, 33, 33)" stroke="none" stroke-width="1px">3k</text><text x="246.05555555555554" y="0" dx="0em" dy="0.95em" style="text-anchor: middle; visibility: inherit; font-family: Roboto, sans-serif; font-size: 12px; font-weight: 200;" fill="rgb(33, 33, 33)" stroke="none" stroke-width="1px">3.5k</text><text x="276.8125" y="0" dx="0em" dy="0.95em" style="text-anchor: middle; visibility: hidden; font-family: Roboto, sans-serif; font-size: 12px; font-weight: 200;" fill="rgb(33, 33, 33)" stroke="none" stroke-width="1px">4k</text></g><line x1="0" y1="0" x2="276.8125" y2="0" fill="rgb(0, 0, 0)" stroke="rgb(204, 204, 204)" stroke-width="1px"></line></g></g></g></g></svg>